<svg xmlns="http://www.w3.org/2000/svg" xmlns:xlink="http://www.w3.org/1999/xlink" width="250" height="54" viewBox="0 0 250 54" version="1.1"><g stroke="none" stroke-width="1" fill="none" fill-rule="evenodd"><g transform="translate(-130.000000, -73.000000)"><g transform="translate(130.000000, 73.000000)"><rect stroke="#D9E1EC" stroke-width="1" fill="#FFFFFF" x="0.5" y="0.5" width="249" height="53" rx="10"/><text font-family="Helvetica-Bold, Helvetica" font-size="9" font-weight="bold" fill="#4B587C"><tspan x="53" y="20">STAR RANKED BY</tspan></text><text font-family="Helvetica-Bold, Helvetica" font-size="21" font-weight="bold" fill="#4B587C"><tspan x="52" y="40">PluginMarket</tspan></text><g transform="translate(201.000000, 13.000000)" fill="#4B587C"><g>
        <polygon points="26.0024997 10 15 10 20.5012498 0"/>
        <text font-family="Helvetica-Bold, Helvetica" font-size="13" font-weight="bold" line-spacing="20">
          <tspan x="12.5" y="27">13</tspan>
        </text>
        </g></g><g transform="translate(10.000000, 11.000000)">
          <svg xmlns="http://www.w3.org/2000/svg" width="36" height="36" viewBox="0 0 24 24" fill="rgba(132, 183, 213, 1)" stroke="rgba(132, 183, 213, 1)" stroke-width="2.3" stroke-linecap="round" stroke-linejoin="round" class="lucide lucide-sparkles" fill-opacity="1"><path d="m12 3-1.912 5.813a2 2 0 0 1-1.275 1.275L3 12l5.813 1.912a2 2 0 0 1 1.275 1.275L12 21l1.912-5.813a2 2 0 0 1 1.275-1.275L21 12l-5.813-1.912a2 2 0 0 1-1.275-1.275L12 3Z"></path><path d="M5 3v4"></path><path d="M19 17v4"></path><path d="M3 5h4"></path><path d="M17 19h4"></path></svg>        </g></g></g></g></svg>